<svg xmlns="http://www.w3.org/2000/svg" width="218" height="69"><defs><mask id="b" width="2" height="2" x="-1" y="-1"><path fill="#fff" d="M6 7h25v24H6z"/><path d="M18.364 11.27c4.498 0 8.175 3.544 8.175 8.108a8.156 8.156 0 0 1-8.175 8.177c-4.497 0-8.272-3.614-8.272-8.177 0-4.564 3.742-8.109 8.272-8.109zm-.032-3.48c-6.863 0-12.182 4.99-12.182 11.588 0 6.567 5.319 11.656 12.182 11.656 6.86 0 12.181-5.089 12.181-11.656 0-6.565-5.321-11.588-12.181-11.588z"/></mask><filter id="a" width="57" height="59" x="-10" y="-9" filterUnits="userSpaceOnUse"><feOffset dy="3" in="SourceGraphic" result="FeOffset1023Out"/><feGaussianBlur in="FeOffset1023Out" result="FeGaussianBlur1024Out" stdDeviation="2.4 2.4"/></filter><mask id="d" width="2" height="2" x="-1" y="-1"><path fill="#fff" d="M34 7h21v24H34z"/><path d="M42.443 20.725l-3.906 4.3v5.845h-3.873V7.889h3.873v11.883L49.504 7.89h4.563l-8.897 9.813 9.488 13.168h-4.662z"/></mask><filter id="c" width="53" height="59" x="18" y="-9" filterUnits="userSpaceOnUse"><feOffset dy="3" in="SourceGraphic" result="FeOffset1039Out"/><feGaussianBlur in="FeOffset1039Out" result="FeGaussianBlur1040Out" stdDeviation="2.4 2.4"/></filter><mask id="f" width="2" height="2" x="-1" y="-1"><path fill="#fff" d="M58 7h21v24H58z"/><path d="M74.37 30.87L62.124 14.39v16.48H58.25V7.889h3.808L74.37 24.4V7.89h3.808v22.98z"/></mask><filter id="e" width="53" height="59" x="42" y="-9" filterUnits="userSpaceOnUse"><feOffset dy="3" in="SourceGraphic" result="FeOffset1055Out"/><feGaussianBlur in="FeOffset1055Out" result="FeGaussianBlur1056Out" stdDeviation="2.4 2.4"/></filter><mask id="h" width="2" height="2" x="-1" y="-1"><path fill="#fff" d="M81 7h25v24H81z"/><path d="M97.629 22.236h-8.667l4.333-10.211zm1.478 3.446l2.198 5.188h4.14L95.394 7.889h-3.972l-10.145 22.98h4.04l2.198-5.187z"/></mask><filter id="g" width="57" height="59" x="65" y="-9" filterUnits="userSpaceOnUse"><feOffset dy="3" in="SourceGraphic" result="FeOffset1071Out"/><feGaussianBlur in="FeOffset1071Out" result="FeGaussianBlur1072Out" stdDeviation="2.4 2.4"/></filter><mask id="j" width="2" height="2" x="-1" y="-1"><path fill="#fff" d="M5 38h36v23H5z"/><path d="M27.163 60.982l-4.268-15.89-4.333 15.89H12.52L5 38.002h6.239l4.497 16.906L20.138 38h5.71l4.501 16.907L34.781 38h5.973l-7.582 22.981z"/></mask><filter id="i" width="68" height="58" x="-11" y="22" filterUnits="userSpaceOnUse"><feOffset dy="3" in="SourceGraphic" result="FeOffset1087Out"/><feGaussianBlur in="FeOffset1087Out" result="FeGaussianBlur1088Out" stdDeviation="2.4 2.4"/></filter><mask id="l" width="2" height="2" x="-1" y="-1"><path fill="#fff" d="M38 38h27v23H38z"/><path d="M54.63 52.316h-6.632l3.348-8.506zm1.706 4.432l1.643 4.234h6.238l-9.687-22.98h-6.007l-9.915 22.98h6.006l1.676-4.234z"/></mask><filter id="k" width="59" height="58" x="22" y="22" filterUnits="userSpaceOnUse"><feOffset dy="3" in="SourceGraphic" result="FeOffset1103Out"/><feGaussianBlur in="FeOffset1103Out" result="FeGaussianBlur1104Out" stdDeviation="2.4 2.4"/></filter><mask id="n" width="2" height="2" x="-1" y="-1"><path fill="#fff" d="M66 38h21v23H66z"/><path d="M72.208 49.917v-7.32h4.432c2.527 0 4.005 1.213 4.005 3.611 0 2.428-1.478 3.71-4.005 3.71zm8.01 11.065h6.633L82.025 53.4c2.691-1.347 4.17-3.874 4.17-7.389 0-5.122-3.48-8.01-9.555-8.01H66.364v22.981h5.844v-6.468h4.597z"/></mask><filter id="m" width="53" height="58" x="50" y="22" filterUnits="userSpaceOnUse"><feOffset dy="3" in="SourceGraphic" result="FeOffset1119Out"/><feGaussianBlur in="FeOffset1119Out" result="FeGaussianBlur1120Out" stdDeviation="2.4 2.4"/></filter><mask id="p" width="2" height="2" x="-1" y="-1"><path fill="#fff" d="M88 37h21v25H88z"/><path d="M108.04 40.298l-2.199 4.563c-2.43-1.41-5.483-2.395-7.355-2.395-1.512 0-2.527.558-2.527 1.673 0 3.974 12.146 1.708 12.146 10.013 0 4.6-4.07 7.027-9.192 7.027-3.841 0-7.78-1.445-10.507-3.679l2.267-4.497c2.362 2.07 5.91 3.449 8.305 3.449 1.84 0 2.99-.69 2.99-2.004 0-4.07-12.15-1.64-12.15-9.784 0-4.235 3.644-6.926 9.16-6.926 3.315 0 6.699 1.016 9.061 2.56z"/></mask><filter id="o" width="53" height="60" x="72" y="21" filterUnits="userSpaceOnUse"><feOffset dy="3" in="SourceGraphic" result="FeOffset1135Out"/><feGaussianBlur in="FeOffset1135Out" result="FeGaussianBlur1136Out" stdDeviation="2.4 2.4"/></filter><mask id="r" width="2" height="2" x="-1" y="-1"><path fill="#fff" d="M109 38h22v23h-22z"/><path d="M117.738 56.353h12.475v4.63h-20.29V57.24l12.313-14.61H110.35v-4.629h19.666v3.742z"/></mask><filter id="q" width="54" height="58" x="93" y="22" filterUnits="userSpaceOnUse"><feOffset dy="3" in="SourceGraphic" result="FeOffset1151Out"/><feGaussianBlur in="FeOffset1151Out" result="FeGaussianBlur1152Out" stdDeviation="2.4 2.4"/></filter><mask id="t" width="2" height="2" x="-1" y="-1"><path fill="#fff" d="M131 38h26v23h-26z"/><path d="M147.035 52.316h-6.633l3.348-8.506zm1.708 4.432l1.64 4.234h6.239l-9.685-22.98h-6.01l-9.914 22.98h6.008l1.676-4.234z"/></mask><filter id="s" width="58" height="58" x="115" y="22" filterUnits="userSpaceOnUse"><feOffset dy="3" in="SourceGraphic" result="FeOffset1167Out"/><feGaussianBlur in="FeOffset1167Out" result="FeGaussianBlur1168Out" stdDeviation="2.4 2.4"/></filter><mask id="v" width="2" height="2" x="-1" y="-1"><path fill="#fff" d="M154 38h37v23h-37z"/><path d="M176.827 60.982l-4.267-15.89-4.334 15.89h-6.042l-7.52-22.98h6.24l4.497 16.906 4.4-16.907h5.712l4.5 16.907L184.447 38h5.973l-7.583 22.981z"/></mask><filter id="u" width="69" height="58" x="138" y="22" filterUnits="userSpaceOnUse"><feOffset dy="3" in="SourceGraphic" result="FeOffset1183Out"/><feGaussianBlur in="FeOffset1183Out" result="FeGaussianBlur1184Out" stdDeviation="2.4 2.4"/></filter><mask id="x" width="2" height="2" x="-1" y="-1"><path fill="#fff" d="M188 38h26v23h-26z"/><path d="M204.293 52.316h-6.63l3.347-8.506zM206 56.748l1.642 4.234h6.236l-9.682-22.98h-6.009l-9.918 22.98h6.009l1.675-4.234z"/></mask><filter id="w" width="58" height="58" x="172" y="22" filterUnits="userSpaceOnUse"><feOffset dy="3" in="SourceGraphic" result="FeOffset1199Out"/><feGaussianBlur in="FeOffset1199Out" result="FeGaussianBlur1200Out" stdDeviation="2.4 2.4"/></filter><mask id="z" width="2" height="2" x="-1" y="-1"><path fill="#fff" d="M110 1h35v30h-35z"/><path d="M125.694 5.252v9.286h-9.286V5.252zm0 12.634v9.288h-9.286v-9.288zm12.633-12.634v9.286h-9.285V5.252zm0 12.634v9.288h-9.285v-9.288zm3.348 9.288V1.904h-28.618v25.27h-2.524v3.696h33.669v-3.696z"/></mask><filter id="y" width="67" height="65" x="94" y="-15" filterUnits="userSpaceOnUse"><feOffset dy="3" in="SourceGraphic" result="FeOffset1215Out"/><feGaussianBlur in="FeOffset1215Out" result="FeGaussianBlur1216Out" stdDeviation="2.4 2.4"/></filter></defs><g filter="url(#a)"><path fill="none" d="M18.364 11.27c4.498 0 8.175 3.544 8.175 8.108a8.156 8.156 0 0 1-8.175 8.177c-4.497 0-8.272-3.614-8.272-8.177 0-4.564 3.742-8.109 8.272-8.109zm-.032-3.48c-6.863 0-12.182 4.99-12.182 11.588 0 6.567 5.319 11.656 12.182 11.656 6.86 0 12.181-5.089 12.181-11.656 0-6.565-5.321-11.588-12.181-11.588z" mask="url(&quot;#b&quot;)"/><path fill-opacity=".25" d="M18.364 11.27c4.498 0 8.175 3.544 8.175 8.108a8.156 8.156 0 0 1-8.175 8.177c-4.497 0-8.272-3.614-8.272-8.177 0-4.564 3.742-8.109 8.272-8.109zm-.032-3.48c-6.863 0-12.182 4.99-12.182 11.588 0 6.567 5.319 11.656 12.182 11.656 6.86 0 12.181-5.089 12.181-11.656 0-6.565-5.321-11.588-12.181-11.588z"/></g><path fill="#fff" d="M18.364 11.27c4.498 0 8.175 3.544 8.175 8.108a8.156 8.156 0 0 1-8.175 8.177c-4.497 0-8.272-3.614-8.272-8.177 0-4.564 3.742-8.109 8.272-8.109zm-.032-3.48c-6.863 0-12.182 4.99-12.182 11.588 0 6.567 5.319 11.656 12.182 11.656 6.86 0 12.181-5.089 12.181-11.656 0-6.565-5.321-11.588-12.181-11.588z"/><g filter="url(#c)"><path fill="none" d="M42.443 20.725l-3.906 4.3v5.845h-3.873V7.889h3.873v11.883L49.504 7.89h4.563l-8.897 9.813 9.488 13.168h-4.662z" mask="url(&quot;#d&quot;)"/><path fill-opacity=".25" d="M42.443 20.725l-3.906 4.3v5.845h-3.873V7.889h3.873v11.883L49.504 7.89h4.563l-8.897 9.813 9.488 13.168h-4.662z"/></g><path fill="#fff" d="M42.443 20.725l-3.906 4.3v5.845h-3.873V7.889h3.873v11.883L49.504 7.89h4.563l-8.897 9.813 9.488 13.168h-4.662z"/><g filter="url(#e)"><path fill="none" d="M74.37 30.87L62.124 14.39v16.48H58.25V7.889h3.808L74.37 24.4V7.89h3.808v22.98z" mask="url(&quot;#f&quot;)"/><path fill-opacity=".25" d="M74.37 30.87L62.124 14.39v16.48H58.25V7.889h3.808L74.37 24.4V7.89h3.808v22.98z"/></g><path fill="#fff" d="M74.37 30.87L62.124 14.39v16.48H58.25V7.889h3.808L74.37 24.4V7.89h3.808v22.98z"/><g filter="url(#g)"><path fill="none" d="M97.629 22.236h-8.667l4.333-10.211zm1.478 3.446l2.198 5.188h4.14L95.394 7.889h-3.972l-10.145 22.98h4.04l2.198-5.187z" mask="url(&quot;#h&quot;)"/><path fill-opacity=".25" d="M97.629 22.236h-8.667l4.333-10.211zm1.478 3.446l2.198 5.188h4.14L95.394 7.889h-3.972l-10.145 22.98h4.04l2.198-5.187z"/></g><path fill="#fff" d="M97.629 22.236h-8.667l4.333-10.211zm1.478 3.446l2.198 5.188h4.14L95.394 7.889h-3.972l-10.145 22.98h4.04l2.198-5.187z"/><g filter="url(#i)"><path fill="none" d="M27.163 60.982l-4.268-15.89-4.333 15.89H12.52L5 38.002h6.239l4.497 16.906L20.138 38h5.71l4.501 16.907L34.781 38h5.973l-7.582 22.981z" mask="url(&quot;#j&quot;)"/><path fill-opacity=".25" d="M27.163 60.982l-4.268-15.89-4.333 15.89H12.52L5 38.002h6.239l4.497 16.906L20.138 38h5.71l4.501 16.907L34.781 38h5.973l-7.582 22.981z"/></g><path fill="#fff" d="M27.163 60.982l-4.268-15.89-4.333 15.89H12.52L5 38.002h6.239l4.497 16.906L20.138 38h5.71l4.501 16.907L34.781 38h5.973l-7.582 22.981z"/><g filter="url(#k)"><path fill="none" d="M54.63 52.316h-6.632l3.348-8.506zm1.706 4.432l1.643 4.234h6.238l-9.687-22.98h-6.007l-9.915 22.98h6.006l1.676-4.234z" mask="url(&quot;#l&quot;)"/><path fill-opacity=".25" d="M54.63 52.316h-6.632l3.348-8.506zm1.706 4.432l1.643 4.234h6.238l-9.687-22.98h-6.007l-9.915 22.98h6.006l1.676-4.234z"/></g><path fill="#fff" d="M54.63 52.316h-6.632l3.348-8.506zm1.706 4.432l1.643 4.234h6.238l-9.687-22.98h-6.007l-9.915 22.98h6.006l1.676-4.234z"/><g filter="url(#m)"><path fill="none" d="M72.208 49.917v-7.32h4.432c2.527 0 4.005 1.213 4.005 3.611 0 2.428-1.478 3.71-4.005 3.71zm8.01 11.065h6.633L82.025 53.4c2.691-1.347 4.17-3.874 4.17-7.389 0-5.122-3.48-8.01-9.555-8.01H66.364v22.981h5.844v-6.468h4.597z" mask="url(&quot;#n&quot;)"/><path fill-opacity=".25" d="M72.208 49.917v-7.32h4.432c2.527 0 4.005 1.213 4.005 3.611 0 2.428-1.478 3.71-4.005 3.71zm8.01 11.065h6.633L82.025 53.4c2.691-1.347 4.17-3.874 4.17-7.389 0-5.122-3.48-8.01-9.555-8.01H66.364v22.981h5.844v-6.468h4.597z"/></g><path fill="#fff" d="M72.208 49.917v-7.32h4.432c2.527 0 4.005 1.213 4.005 3.611 0 2.428-1.478 3.71-4.005 3.71zm8.01 11.065h6.633L82.025 53.4c2.691-1.347 4.17-3.874 4.17-7.389 0-5.122-3.48-8.01-9.555-8.01H66.364v22.981h5.844v-6.468h4.597z"/><g filter="url(#o)"><path fill="none" d="M108.04 40.298l-2.199 4.563c-2.43-1.41-5.483-2.395-7.355-2.395-1.512 0-2.527.558-2.527 1.673 0 3.974 12.146 1.708 12.146 10.013 0 4.6-4.07 7.027-9.192 7.027-3.841 0-7.78-1.445-10.507-3.679l2.267-4.497c2.362 2.07 5.91 3.449 8.305 3.449 1.84 0 2.99-.69 2.99-2.004 0-4.07-12.15-1.64-12.15-9.784 0-4.235 3.644-6.926 9.16-6.926 3.315 0 6.699 1.016 9.061 2.56z" mask="url(&quot;#p&quot;)"/><path fill-opacity=".25" d="M108.04 40.298l-2.199 4.563c-2.43-1.41-5.483-2.395-7.355-2.395-1.512 0-2.527.558-2.527 1.673 0 3.974 12.146 1.708 12.146 10.013 0 4.6-4.07 7.027-9.192 7.027-3.841 0-7.78-1.445-10.507-3.679l2.267-4.497c2.362 2.07 5.91 3.449 8.305 3.449 1.84 0 2.99-.69 2.99-2.004 0-4.07-12.15-1.64-12.15-9.784 0-4.235 3.644-6.926 9.16-6.926 3.315 0 6.699 1.016 9.061 2.56z"/></g><path fill="#fff" d="M108.04 40.298l-2.199 4.563c-2.43-1.41-5.483-2.395-7.355-2.395-1.512 0-2.527.558-2.527 1.673 0 3.974 12.146 1.708 12.146 10.013 0 4.6-4.07 7.027-9.192 7.027-3.841 0-7.78-1.445-10.507-3.679l2.267-4.497c2.362 2.07 5.91 3.449 8.305 3.449 1.84 0 2.99-.69 2.99-2.004 0-4.07-12.15-1.64-12.15-9.784 0-4.235 3.644-6.926 9.16-6.926 3.315 0 6.699 1.016 9.061 2.56z"/><g filter="url(#q)"><path fill="none" d="M117.738 56.353h12.475v4.63h-20.29V57.24l12.313-14.61H110.35v-4.629h19.666v3.742z" mask="url(&quot;#r&quot;)"/><path fill-opacity=".25" d="M117.738 56.353h12.475v4.63h-20.29V57.24l12.313-14.61H110.35v-4.629h19.666v3.742z"/></g><path fill="#fff" d="M117.738 56.353h12.475v4.63h-20.29V57.24l12.313-14.61H110.35v-4.629h19.666v3.742z"/><g filter="url(#s)"><path fill="none" d="M147.035 52.316h-6.633l3.348-8.506zm1.708 4.432l1.64 4.234h6.239l-9.685-22.98h-6.01l-9.914 22.98h6.008l1.676-4.234z" mask="url(&quot;#t&quot;)"/><path fill-opacity=".25" d="M147.035 52.316h-6.633l3.348-8.506zm1.708 4.432l1.64 4.234h6.239l-9.685-22.98h-6.01l-9.914 22.98h6.008l1.676-4.234z"/></g><path fill="#fff" d="M147.035 52.316h-6.633l3.348-8.506zm1.708 4.432l1.64 4.234h6.239l-9.685-22.98h-6.01l-9.914 22.98h6.008l1.676-4.234z"/><g filter="url(#u)"><path fill="none" d="M176.827 60.982l-4.267-15.89-4.334 15.89h-6.042l-7.52-22.98h6.24l4.497 16.906 4.4-16.907h5.712l4.5 16.907L184.447 38h5.973l-7.583 22.981z" mask="url(&quot;#v&quot;)"/><path fill-opacity=".25" d="M176.827 60.982l-4.267-15.89-4.334 15.89h-6.042l-7.52-22.98h6.24l4.497 16.906 4.4-16.907h5.712l4.5 16.907L184.447 38h5.973l-7.583 22.981z"/></g><path fill="#fff" d="M176.827 60.982l-4.267-15.89-4.334 15.89h-6.042l-7.52-22.98h6.24l4.497 16.906 4.4-16.907h5.712l4.5 16.907L184.447 38h5.973l-7.583 22.981z"/><g filter="url(#w)"><path fill="none" d="M204.293 52.316h-6.63l3.347-8.506zM206 56.748l1.642 4.234h6.236l-9.682-22.98h-6.009l-9.918 22.98h6.009l1.675-4.234z" mask="url(&quot;#x&quot;)"/><path fill-opacity=".25" d="M204.293 52.316h-6.63l3.347-8.506zM206 56.748l1.642 4.234h6.236l-9.682-22.98h-6.009l-9.918 22.98h6.009l1.675-4.234z"/></g><path fill="#fff" d="M204.293 52.316h-6.63l3.347-8.506zM206 56.748l1.642 4.234h6.236l-9.682-22.98h-6.009l-9.918 22.98h6.009l1.675-4.234z"/><g filter="url(#y)"><path fill="none" d="M125.694 5.252v9.286h-9.286V5.252zm0 12.634v9.288h-9.286v-9.288zm12.633-12.634v9.286h-9.285V5.252zm0 12.634v9.288h-9.285v-9.288zm3.348 9.288V1.904h-28.618v25.27h-2.524v3.696h33.669v-3.696z" mask="url(&quot;#z&quot;)"/><path fill-opacity=".25" d="M125.694 5.252v9.286h-9.286V5.252zm0 12.634v9.288h-9.286v-9.288zm12.633-12.634v9.286h-9.285V5.252zm0 12.634v9.288h-9.285v-9.288zm3.348 9.288V1.904h-28.618v25.27h-2.524v3.696h33.669v-3.696z"/></g><path fill="#fff" d="M125.694 5.252v9.286h-9.286V5.252zm0 12.634v9.288h-9.286v-9.288zm12.633-12.634v9.286h-9.285V5.252zm0 12.634v9.288h-9.285v-9.288zm3.348 9.288V1.904h-28.618v25.27h-2.524v3.696h33.669v-3.696z"/></svg>